<?xml version="1.0"?>
<svg xmlns="http://www.w3.org/2000/svg" id="Capa_1" enable-background="new 0 0 512 512" height="512px" viewBox="0 0 512 512" width="512px" class="hovered-paths"><g><path d="m0 0v512h512v-512zm482 30v90.096h-452v-90.096zm-452 452v-331.904h452v331.904z" data-original="#000000" class="active-path" data-old_color="#000000" fill="#2F4F6E"/><path d="m60.036 60.048h30.023v30h-30.023z" data-original="#000000" class="active-path" data-old_color="#000000" fill="#2F4F6E"/><path d="m120.084 60.048h30.024v30h-30.024z" data-original="#000000" class="active-path" data-old_color="#000000" fill="#2F4F6E"/><path d="m180.132 60.048h30.024v30h-30.024z" data-original="#000000" class="active-path" data-old_color="#000000" fill="#2F4F6E"/><path d="m194.637 292.769c12.486-11.911 20.289-28.689 20.289-47.266 0-36.039-29.319-65.358-65.358-65.358s-65.358 29.32-65.358 65.358c0 18.577 7.803 35.355 20.289 47.266-27.65 15.736-46.339 45.475-46.339 79.5v79.684h182.815v-79.684c.001-34.025-18.688-63.764-46.338-79.5zm-80.427-47.267c0-19.497 15.861-35.358 35.358-35.358s35.358 15.862 35.358 35.358-15.861 35.358-35.358 35.358-35.358-15.861-35.358-35.358zm96.766 176.45h-122.816v-49.684c0-33.86 27.548-61.408 61.408-61.408s61.407 27.547 61.407 61.408v49.684z" data-original="#000000" class="active-path" data-old_color="#000000" fill="#2F4F6E"/><path d="m271.012 210.976h180.952v30h-180.952z" data-original="#000000" class="active-path" data-old_color="#000000" fill="#2F4F6E"/><path d="m271.012 271.024h180.952v30h-180.952z" data-original="#000000" class="active-path" data-old_color="#000000" fill="#2F4F6E"/><path d="m271.012 331.072h180.952v30h-180.952z" data-original="#000000" class="active-path" data-old_color="#000000" fill="#2F4F6E"/><path d="m271.012 391.12h180.952v30h-180.952z" data-original="#000000" class="active-path" data-old_color="#000000" fill="#2F4F6E"/></g> </svg>
